<svg version="1.1" id="Layer_1" xmlns="http://www.w3.org/2000/svg" xmlns:xlink="http://www.w3.org/1999/xlink" x="0px" y="0px"
	 width="100%" viewBox="0 0 1024 1024" enable-background="new 0 0 1024 1024" xml:space="preserve">
<path fill="#000000" opacity="1.000000" stroke="none" 
	d="
M464.949829,551.064087 
	C446.556061,542.794067 427.522949,537.808350 408.107635,534.795288 
	C386.174774,531.391602 363.989380,531.343567 341.816345,532.566040 
	C324.662537,533.511719 307.725708,535.858521 290.859741,539.116638 
	C280.612518,541.096130 280.823151,540.655884 280.595398,530.205078 
	C280.090942,507.058502 280.207642,483.895111 280.382416,460.766907 
	C280.877258,395.278625 280.341339,329.791992 280.749298,264.306305 
	C280.765900,261.640320 280.783691,258.970886 280.671631,256.308472 
	C280.539215,253.162079 281.912811,251.724823 285.094818,251.730820 
	C294.260071,251.748047 303.426605,251.734680 312.590210,251.585815 
	C315.546936,251.537796 317.005371,252.766983 317.031189,255.631622 
	C317.074707,260.463318 317.013885,265.295898 317.008820,270.128113 
	C317.005493,273.288055 315.502991,274.536194 312.306702,274.377838 
	C302.197693,273.877136 303.286377,273.590973 303.286377,283.444733 
	C303.286530,357.933472 303.347229,432.422180 303.398712,506.910919 
	C303.400177,509.042145 303.107208,511.234863 304.553101,513.648682 
	C355.347687,505.517853 405.818665,506.568970 455.932892,522.690857 
	C455.191711,520.441406 453.548615,519.918396 452.339874,519.080017 
	C429.911102,503.522827 404.805237,494.620880 378.245667,489.339966 
	C363.798096,486.467316 349.190216,485.774384 334.507355,486.036926 
	C328.525238,486.143921 327.859497,485.550598 328.066559,479.506927 
	C329.104218,449.217621 328.480988,418.917236 328.613434,388.623627 
	C328.870514,329.827118 328.710358,271.028656 328.658997,212.231049 
	C328.655853,208.635284 328.983704,206.042938 333.618896,206.141953 
	C354.796814,206.594376 375.861115,207.954987 396.547455,212.930893 
	C434.448151,222.047577 468.711609,238.237152 497.655182,264.811798 
	C498.590698,265.670746 499.321075,266.941437 501.638062,266.911621 
	C501.638062,263.865051 501.634338,260.789398 501.638855,257.713776 
	C501.648712,251.048096 501.832825,244.376785 501.611694,237.718857 
	C501.477814,233.688782 502.880890,231.815445 507.021973,231.954803 
	C511.349915,232.100479 515.687561,232.059113 520.018677,231.977829 
	C523.627502,231.910095 525.098206,233.579071 525.051636,237.150284 
	C524.947449,245.147919 525.020569,253.147873 525.021423,261.146881 
	C525.021606,263.129761 525.021484,265.112640 525.021484,267.930389 
	C530.387695,263.414337 535.041016,259.284119 539.914612,255.432693 
	C564.854858,235.723541 592.897400,222.487839 623.666992,214.542175 
	C645.759033,208.837326 668.169495,206.550293 690.856506,206.019806 
	C697.488159,205.864731 698.050598,206.386459 698.053894,212.976395 
	C698.098633,301.965424 698.095947,390.954468 698.223389,479.943359 
	C698.230347,484.803406 696.482544,486.300476 691.743774,486.185455 
	C653.819336,485.264954 618.045532,493.478973 584.851746,512.084229 
	C579.114258,515.300171 573.718689,519.126343 568.394958,523.128357 
	C579.237793,519.733948 590.151672,516.981201 601.160278,514.691833 
	C632.713928,508.129944 664.539795,507.200684 696.567322,510.319885 
	C703.865051,511.030609 711.173523,511.654266 718.317688,513.227173 
	C722.561951,514.161682 722.754211,512.027954 722.751343,508.986572 
	C722.737183,493.821747 722.778015,478.656921 722.783020,463.492096 
	C722.803223,402.832489 722.815979,342.172913 722.835205,281.513306 
	C722.837585,274.110565 722.848022,274.110596 715.327942,274.470184 
	C709.725281,274.738068 709.023560,274.095886 708.949585,268.402954 
	C708.895447,264.237366 708.962585,260.070038 708.894165,255.904800 
	C708.843384,252.813751 710.238770,251.240921 713.361572,251.228683 
	C722.174866,251.194122 730.990601,251.259933 739.800415,251.061340 
	C744.622986,250.952606 746.055237,253.100204 746.050720,257.737976 
	C745.961182,349.726807 745.991394,441.715729 745.986145,533.704651 
	C745.985718,541.161682 745.114075,541.582275 737.762878,539.951599 
	C706.025574,532.911499 673.918152,530.904175 641.473999,532.677612 
	C626.281799,533.508057 611.319458,535.325500 596.621826,539.247925 
	C574.475647,545.158142 552.973816,552.511169 534.645081,566.958374 
	C533.337280,567.989258 531.706543,568.813477 530.810242,570.131287 
	C523.871460,580.331909 513.445740,576.905762 503.971100,577.132568 
	C502.376282,577.170837 501.243622,575.996216 500.211212,574.884338 
	C490.392242,564.309509 478.227600,557.199463 464.949829,551.064087 
M389.767700,319.353455 
	C396.872589,309.710754 405.919403,302.815948 417.272949,298.649292 
	C444.642151,288.604919 476.686768,305.191406 483.697754,333.158051 
	C484.588379,336.710724 483.856201,338.498810 480.253845,339.319611 
	C476.368164,340.205017 472.354279,340.949310 468.752533,342.554443 
	C464.039856,344.654724 462.489960,343.009552 461.041473,338.565186 
	C456.357483,324.193115 442.552216,316.612396 427.833160,319.937256 
	C409.806610,324.009216 401.544952,337.969910 402.384277,356.566498 
	C403.414429,379.390747 412.493469,399.231415 427.896515,415.914795 
	C445.908173,435.423676 467.911316,447.533752 494.717621,450.381592 
	C523.064087,453.393127 547.070435,444.867249 566.043335,423.591492 
	C581.086487,406.722534 587.664734,386.436127 587.785156,363.969147 
	C587.835510,354.569519 587.793579,345.169464 587.793579,334.280182 
	C582.237854,341.523651 577.497070,347.480072 573.022339,353.630096 
	C570.657532,356.880249 568.477356,358.113007 564.904053,355.209595 
	C561.812378,352.697601 558.431519,350.505127 555.019226,348.433807 
	C551.312317,346.183655 550.922485,344.037964 553.741333,340.498230 
	C568.058350,322.520111 582.197632,304.399902 596.314514,286.263580 
	C598.405396,283.577271 600.027466,283.373413 602.158875,286.106720 
	C616.806335,304.890442 631.486145,323.649048 646.194336,342.385254 
	C647.806091,344.438354 647.573853,345.954254 645.420532,347.328430 
	C642.049744,349.479431 638.719727,351.694458 635.339905,353.831024 
	C629.219116,357.700165 629.180786,357.706635 624.700806,352.014862 
	C620.533630,346.720612 616.435730,341.371887 612.356934,336.111176 
	C610.680908,337.088287 611.081055,338.189941 611.078308,339.122040 
	C611.051208,348.120026 611.056091,357.118134 611.055420,366.116180 
	C611.054138,383.599976 606.923035,400.172546 598.949219,415.606445 
	C584.188171,444.177551 561.254456,463.014374 530.065247,471.384460 
	C526.136841,472.438690 524.823547,474.137543 524.898254,478.239990 
	C525.159180,492.566284 524.992065,506.900330 524.988159,521.231445 
	C524.987183,524.812927 524.988037,528.394409 524.988037,532.497803 
	C525.983521,531.761230 526.418945,531.539490 526.722717,531.199951 
	C564.608337,488.859314 612.749756,468.066986 668.691101,463.931763 
	C673.509949,463.575562 674.806580,462.126862 674.801270,457.448578 
	C674.717285,383.292572 674.762939,309.136353 674.916565,234.980438 
	C674.926453,230.195282 673.609314,228.686951 668.834167,229.900314 
	C665.812439,230.668137 662.531189,230.342758 659.413025,230.815536 
	C642.437683,233.389343 625.781677,237.213959 609.565857,243.001694 
	C578.007202,254.265594 550.778748,271.775574 529.217896,297.689819 
	C526.332703,301.157654 524.913269,304.843109 524.960510,309.519714 
	C525.170837,330.347931 525.042114,351.179474 525.049438,372.009827 
	C525.056152,391.340332 524.902466,410.673676 525.215454,429.999390 
	C525.298462,435.123627 523.414185,437.486084 518.628174,437.905609 
	C515.480713,438.181458 512.315063,438.247620 509.157867,438.414337 
	C501.295837,438.829468 501.033539,438.596954 501.068298,430.661469 
	C501.245514,390.204315 501.399628,349.747040 501.672729,309.290497 
	C501.697662,305.602356 500.828217,302.619110 498.527863,299.660706 
	C478.832703,274.331573 453.044434,257.474091 423.695862,245.550247 
	C401.934448,236.708954 379.129852,232.199234 355.911621,229.399338 
	C351.291382,228.842178 351.149994,231.487717 351.152618,234.814056 
	C351.210999,309.303467 351.269836,383.792938 351.174530,458.282227 
	C351.169342,462.336639 352.632568,463.346741 356.295410,463.552979 
	C374.656555,464.586884 392.547699,468.068848 410.136444,473.539459 
	C444.665070,484.278839 474.269043,502.550049 498.232910,529.765381 
	C498.995544,530.631531 499.324615,532.333862 501.624512,531.727905 
	C501.619568,513.681030 500.366333,495.552673 501.437897,477.437134 
	C501.605804,474.598633 499.753387,474.322449 497.528168,474.233765 
	C484.909943,473.730743 472.760834,470.659851 461.222443,465.892242 
	C419.437531,448.626892 391.495911,418.976898 381.243805,374.177917 
	C376.888000,355.144165 378.313263,336.769684 389.767700,319.353455 
z"/>
<path fill="#000000" opacity="1.000000" stroke="none" 
	d="
M857.247192,728.005005 
	C857.281006,736.169128 857.367615,743.834900 857.325989,751.499878 
	C857.294800,757.252563 855.490601,758.843872 849.688049,758.649292 
	C846.861084,758.554504 844.027954,758.468994 841.202393,758.547974 
	C836.072754,758.691284 833.991150,756.726501 834.031433,751.431152 
	C834.218872,726.802673 834.456726,702.174622 834.624817,677.546021 
	C834.702087,666.216614 834.656311,654.886414 834.674805,643.556580 
	C834.685425,637.058899 835.807434,635.869629 842.137939,635.851135 
	C856.968872,635.807800 871.800720,635.701294 886.630798,635.808899 
	C909.025757,635.971252 927.036987,653.854248 926.127625,675.493530 
	C925.542297,689.422668 918.177551,699.719177 906.224915,706.390869 
	C902.331116,708.564392 902.168274,710.207642 904.116211,713.601440 
	C910.831665,725.301147 917.350220,737.113647 923.995300,748.854004 
	C928.448792,756.722351 927.248718,759.141541 918.385681,758.945129 
	C902.853271,758.600952 905.203064,761.847168 897.020691,746.432739 
	C891.477051,735.989380 885.774231,725.630066 880.297852,715.152039 
	C878.891663,712.461487 877.163391,711.120972 874.050476,711.284607 
	C870.060730,711.494263 866.050049,711.506226 862.056152,711.372131 
	C858.695740,711.259338 857.120422,712.501526 857.257446,716.009521 
	C857.406921,719.835754 857.261719,723.673523 857.247192,728.005005 
M887.957642,657.145691 
	C879.321350,657.097656 870.684021,657.111694 862.049316,656.969482 
	C858.810242,656.916138 857.117188,657.893066 857.181702,661.494141 
	C857.345276,670.626831 857.309875,679.763855 857.276367,688.898865 
	C857.266663,691.553894 858.234802,692.894653 861.058655,692.865601 
	C869.528625,692.778381 878.021423,693.162781 886.462830,692.655640 
	C892.221619,692.309692 897.483215,689.897827 900.542419,684.526489 
	C907.455139,672.389282 902.481689,660.925415 887.957642,657.145691 
z"/>
<path fill="#000000" opacity="1.000000" stroke="none" 
	d="
M311.876038,817.314026 
	C317.379730,803.815979 328.309662,798.811523 341.309387,798.003235 
	C353.757019,797.229187 364.765991,801.029907 371.919952,812.160156 
	C379.608887,824.122803 375.526520,840.086731 362.430511,849.936279 
	C359.936493,851.812012 357.317322,853.521240 354.787384,855.285400 
	C356.818359,858.731140 368.892883,871.408508 373.111755,874.521118 
	C376.762146,869.798706 378.115021,864.174622 379.502106,858.608826 
	C381.301971,851.386353 382.822662,850.100769 388.704559,851.353210 
	C397.968811,853.325806 399.846375,855.665955 398.480621,862.892212 
	C397.008575,870.680908 394.288025,878.007202 390.083954,884.650940 
	C387.879395,888.134827 388.589813,890.327515 391.373169,892.736694 
	C395.023499,895.896362 398.447235,899.319214 402.119843,902.451355 
	C405.430023,905.274475 406.095184,908.037781 402.691284,911.208862 
	C401.962646,911.887634 401.364532,912.704285 400.670868,913.423218 
	C393.801636,920.542053 391.403076,920.568604 384.260559,913.769592 
	C381.496033,911.138000 378.981628,907.299866 375.700531,906.405212 
	C372.005157,905.397522 369.502594,910.088013 366.422211,912.183167 
	C350.254028,923.180115 323.769684,921.196777 310.295441,907.825989 
	C299.550720,897.163818 298.365448,879.826782 307.277710,867.602173 
	C311.442352,861.889709 316.636810,857.335815 322.843384,852.892273 
	C313.732727,842.592834 307.787567,831.585754 311.876038,817.314026 
M351.917694,881.582031 
	C347.358978,876.950378 342.812897,872.306152 338.232758,867.695740 
	C337.066193,866.521423 335.907288,865.192322 333.929352,866.273315 
	C324.169220,871.607178 317.320404,885.567627 327.767303,895.945068 
	C335.997894,904.120850 353.914856,901.699463 362.036743,890.231018 
	C358.993683,887.653687 355.705170,884.868408 351.917694,881.582031 
M353.736328,834.040344 
	C357.471039,827.112244 356.019562,819.721863 350.309052,816.589661 
	C344.325012,813.307434 335.333008,815.045288 332.314697,820.067444 
	C328.488037,826.434631 330.999420,835.502380 339.440002,841.661560 
	C344.843262,845.604309 347.514648,838.894470 351.363312,836.884216 
	C352.181274,836.456970 352.679840,835.418274 353.736328,834.040344 
z"/>
<path fill="#000000" opacity="1.000000" stroke="none" 
	d="
M680.123047,826.958984 
	C701.922852,862.719116 681.811707,909.415649 641.331055,917.768311 
	C597.003723,926.914795 559.629639,889.130249 569.292847,844.938965 
	C575.803284,815.166138 605.665161,794.450317 635.679993,798.439270 
	C654.952698,801.000610 669.601624,810.314636 680.123047,826.958984 
M592.598755,873.794678 
	C598.189819,887.412781 608.363770,895.704895 622.799683,897.623901 
	C639.336060,899.822144 652.405884,893.485229 661.346497,879.153259 
	C671.002563,863.674194 668.286804,843.440491 654.683899,829.696777 
	C642.762207,817.651672 623.099731,815.559082 608.225281,824.698242 
	C594.223022,833.301514 585.504211,853.112915 592.598755,873.794678 
z"/>
<path fill="#000000" opacity="1.000000" stroke="none" 
	d="
M336.121887,650.043091 
	C336.133575,684.198608 336.150055,717.860901 336.150543,751.523254 
	C336.150635,757.777100 335.405823,758.484009 329.317352,758.390076 
	C326.651764,758.348938 323.983795,758.299438 321.319519,758.363342 
	C314.665924,758.522888 313.678833,757.499207 313.703064,750.598999 
	C313.748077,737.767517 313.568024,724.932129 313.845245,712.106262 
	C313.943207,707.573242 312.632019,705.997681 307.960419,706.075562 
	C292.799896,706.328491 277.630920,706.289795 262.468719,706.091431 
	C258.271423,706.036560 256.975342,707.548645 257.031372,711.597107 
	C257.211212,724.592896 257.100433,737.592529 257.124786,750.590637 
	C257.137543,757.400818 255.766876,758.706360 248.822128,758.460999 
	C246.657944,758.384521 244.489380,758.356689 242.324341,758.394531 
	C235.778824,758.508667 234.681793,757.504639 234.684692,751.096985 
	C234.700012,717.101929 234.729813,683.106812 234.754684,649.111755 
	C234.756271,646.945374 234.740204,644.778748 234.763947,642.612610 
	C234.822723,637.252380 236.125900,635.945129 241.625580,635.849915 
	C244.623993,635.797913 247.625458,635.916504 250.623657,635.858948 
	C255.273102,635.769714 257.206665,638.048401 257.170166,642.625671 
	C257.070496,655.123230 257.275421,667.624695 257.041931,680.118713 
	C256.961548,684.419800 258.164368,685.933716 262.686829,685.849365 
	C278.012573,685.563538 293.347626,685.604553 308.676453,685.769897 
	C312.633636,685.812500 313.881531,684.481384 313.822693,680.577759 
	C313.636963,668.248901 313.750427,655.915283 313.784943,643.583557 
	C313.803528,636.932434 314.924164,635.879333 321.737885,635.869263 
	C321.904541,635.869019 322.071167,635.873352 322.237823,635.873352 
	C336.052795,635.874878 336.052795,635.874878 336.121887,650.043091 
z"/>
<path fill="#000000" opacity="1.000000" stroke="none" 
	d="
M722.959412,700.000000 
	C722.950378,680.846741 722.919922,662.193420 722.939514,643.540161 
	C722.946106,637.252930 724.277405,635.877502 730.562683,635.865112 
	C752.213745,635.822388 773.865051,635.827026 795.516174,635.865967 
	C801.542419,635.876770 803.119385,637.563660 803.189087,643.654297 
	C803.337097,656.590393 802.779663,657.146545 789.803284,657.104858 
	C777.312378,657.064697 764.821411,657.027161 752.330505,657.001953 
	C746.233826,656.989624 745.938171,657.320862 745.945129,663.544067 
	C745.951843,669.539185 746.123474,675.543640 745.838135,681.525696 
	C745.676453,684.914490 746.899963,685.872620 750.102905,685.839233 
	C761.926575,685.716064 773.752258,685.768250 785.577087,685.793152 
	C792.874695,685.808472 794.066833,687.000366 794.135864,694.117493 
	C794.257568,706.660767 793.337585,707.258484 780.770508,706.638245 
	C770.634766,706.138000 760.460144,706.468567 750.305786,706.273438 
	C747.002686,706.209900 745.907532,707.623108 745.943909,710.750488 
	C746.030945,718.243286 746.147644,725.747131 745.829590,733.228577 
	C745.666077,737.073608 746.982178,738.047302 750.655090,738.003296 
	C765.642151,737.823792 780.632568,737.935059 795.621765,737.918335 
	C802.195251,737.911011 803.973206,739.723755 803.644897,746.205627 
	C803.001770,758.903748 803.001892,758.914673 790.366943,758.920898 
	C770.725708,758.930481 751.084534,758.937622 731.443298,758.916138 
	C724.366150,758.908386 722.885986,757.420776 722.891663,750.464783 
	C722.905212,733.809875 722.934570,717.154907 722.959412,700.000000 
z"/>
<path fill="#000000" opacity="1.000000" stroke="none" 
	d="
M402.660370,657.681885 
	C405.694550,651.151001 408.600861,644.978516 411.430023,638.770996 
	C412.572998,636.263184 413.716644,633.919312 417.024872,633.896851 
	C420.403870,633.873901 422.085419,636.001648 423.354492,638.696838 
	C429.662262,652.092590 435.970184,665.488220 442.263245,678.890869 
	C453.574615,702.981201 464.855774,727.085693 476.195648,751.162537 
	C478.717468,756.516907 477.751434,758.331238 471.804779,758.872192 
	C471.639038,758.887268 471.472412,758.900269 471.306183,758.900024 
	C453.235779,758.876038 455.704559,761.239075 449.527740,745.697327 
	C445.733551,736.150635 441.232788,732.027649 430.225616,733.586853 
	C419.478790,735.109192 408.312195,733.804321 397.336212,733.506287 
	C392.856079,733.384583 390.299988,735.014832 388.808228,739.359924 
	C387.085266,744.378418 384.626129,749.141663 382.544617,754.040405 
	C381.144684,757.334961 378.700409,758.964783 375.148621,758.889648 
	C371.489929,758.812317 367.829224,758.731750 364.175598,758.536865 
	C358.191193,758.217651 357.303833,756.796265 359.712738,751.506409 
	C365.090729,739.696533 370.479858,727.891663 375.882812,716.093201 
	C384.748108,696.734070 393.627869,677.381531 402.660370,657.681885 
M404.299225,713.915894 
	C414.195099,713.915894 424.090973,713.915894 435.161957,713.915894 
	C429.064789,700.538269 423.508820,688.348083 417.400177,674.945312 
	C411.791748,687.672485 406.826385,698.913574 401.891113,710.167725 
	C401.121582,711.922668 400.286469,713.826538 404.299225,713.915894 
z"/>
<path fill="#000000" opacity="1.000000" stroke="none" 
	d="
M531.114258,715.105957 
	C523.264160,715.126709 523.243652,715.126648 523.226013,722.472473 
	C523.203308,731.965393 523.229431,741.458435 523.211487,750.951416 
	C523.199402,757.335388 521.937866,758.737000 515.783020,758.863098 
	C498.075012,759.225891 499.887543,758.484924 499.927094,743.715942 
	C500.004242,714.904663 500.030487,686.093140 500.023895,657.281738 
	C500.022736,652.296570 500.693298,647.336365 500.161102,642.320435 
	C499.797485,638.893616 501.684021,636.026123 505.149658,636.041992 
	C521.275391,636.115845 537.566284,634.059387 553.488403,636.914062 
	C570.046326,639.882690 581.587097,649.906616 585.306519,666.815674 
	C588.690186,682.198364 584.213257,695.488892 571.950500,705.742798 
	C564.353638,712.095215 555.223755,714.442444 545.581848,715.010681 
	C540.933838,715.284729 536.258057,715.088562 531.114258,715.105957 
M563.636780,677.955200 
	C563.791260,665.681152 557.429016,657.990601 546.143250,657.330688 
	C539.841919,656.962280 533.503906,657.254028 527.183777,657.159851 
	C524.510437,657.119995 523.192627,658.143494 523.209778,660.949097 
	C523.270874,670.930237 523.283813,680.912170 523.221008,690.893188 
	C523.203735,693.632935 524.504333,694.206909 526.964233,694.097168 
	C530.947998,693.919373 534.949280,693.949097 538.937134,694.077393 
	C553.132507,694.534058 557.907471,691.591125 563.636780,677.955200 
z"/>
<path fill="#000000" opacity="1.000000" stroke="none" 
	d="
M189.471985,753.612305 
	C147.887558,773.929016 99.046730,745.129883 98.476662,699.446960 
	C97.973167,659.100342 128.308914,632.722168 165.478622,634.132080 
	C179.463745,634.662537 191.944290,640.222290 202.558975,649.635132 
	C205.815308,652.522766 206.547592,654.968384 202.879501,658.159241 
	C199.512329,661.088318 197.053421,665.916199 193.254318,667.270569 
	C188.833313,668.846619 185.753326,663.323914 181.959488,661.140198 
	C159.264542,648.077393 131.647507,657.900208 124.095947,683.002563 
	C116.369888,708.685120 129.544617,731.524231 151.501099,737.008850 
	C162.511856,739.759216 173.717300,738.866882 183.469254,731.656067 
	C185.610245,730.072998 187.848465,728.622070 190.025040,727.086304 
	C192.339340,725.453430 194.611511,725.745117 196.230682,727.851868 
	C199.448044,732.038025 205.691391,733.979553 205.825623,740.364685 
	C205.847000,741.381714 204.369675,742.507751 203.451538,743.453613 
	C199.472061,747.553101 194.836777,750.771912 189.471985,753.612305 
z"/>
<path fill="#000000" opacity="1.000000" stroke="none" 
	d="
M461.611542,895.343445 
	C446.644684,875.153503 445.323578,853.443481 455.709595,831.866943 
	C466.736511,808.958984 486.529877,797.907227 511.890778,797.942200 
	C526.485718,797.962341 539.582825,803.000549 550.652771,812.872803 
	C553.890625,815.760315 554.008118,818.244141 550.829712,821.133911 
	C547.523560,824.139832 545.618042,829.158020 541.268127,830.365295 
	C536.556641,831.673096 534.047180,826.386780 530.332947,824.393005 
	C516.343506,816.883606 502.470459,816.510010 489.233856,825.464905 
	C475.654816,834.651367 469.997925,848.428833 472.607208,864.145142 
	C477.869141,895.839355 511.469452,907.723145 534.505005,889.277527 
	C540.927612,884.134705 541.005127,884.231384 546.663330,889.823120 
	C556.008301,899.058411 555.945801,899.906616 545.347900,907.700867 
	C519.187378,926.940430 481.603027,921.505859 461.611542,895.343445 
z"/>
<path fill="#000000" opacity="1.000000" stroke="none" 
	d="
M637.916748,753.483276 
	C637.903992,723.051697 637.838379,693.072266 638.006897,663.094116 
	C638.032104,658.608765 636.817200,656.802673 632.098328,657.025574 
	C624.952637,657.362854 617.779053,657.088623 610.617493,657.117615 
	C606.072693,657.136047 603.951172,654.914673 603.858337,650.385498 
	C603.516846,633.717407 604.804688,635.865112 617.765015,635.829895 
	C640.748901,635.767578 663.733154,635.820618 686.717224,635.849304 
	C693.401306,635.857605 694.944580,637.414307 695.045044,644.039612 
	C695.240540,656.946838 695.080750,657.108276 682.080322,657.106018 
	C677.250305,657.105225 672.420288,657.108398 667.590271,657.099365 
	C661.173706,657.087280 661.047607,657.186951 661.050659,663.367981 
	C661.064758,691.848145 661.084656,720.328369 661.113037,748.808533 
	C661.122192,758.026672 660.340942,758.846069 651.227783,758.931091 
	C648.896301,758.952820 646.563782,758.983276 644.233215,758.934875 
	C640.892212,758.865540 638.358643,757.714844 637.916748,753.483276 
z"/>
<path fill="#000000" opacity="1.000000" stroke="none" 
	d="
M489.865417,163.747131 
	C488.948059,142.867691 496.616760,125.614883 509.363098,110.215187 
	C511.624176,107.483429 513.588074,106.231369 516.482849,109.735458 
	C529.322144,125.277031 537.373657,142.487991 536.164246,163.200500 
	C535.539856,173.894348 532.174377,183.725388 527.296814,193.121735 
	C524.289246,198.915695 520.156738,203.954681 516.317017,209.190506 
	C514.102356,212.210510 512.142395,211.792648 509.956421,209.137100 
	C499.140594,195.997787 491.649231,181.389618 489.865417,163.747131 
z"/>
<path fill="#000000" opacity="1.000000" stroke="none" 
	d="
M576.077454,162.950668 
	C583.769836,159.443985 591.537354,157.728790 599.528809,156.922409 
	C603.078491,156.564224 604.677002,157.846237 604.385498,161.780823 
	C602.389282,188.718872 587.458130,207.665619 561.670166,215.289825 
	C557.245056,216.598114 552.535522,216.980865 547.937500,217.655502 
	C544.800415,218.115768 543.146545,216.677292 543.397156,213.419067 
	C545.133667,190.841660 554.984680,173.472595 576.077454,162.950668 
z"/>
<path fill="#000000" opacity="1.000000" stroke="none" 
	d="
M447.164856,161.668793 
	C469.365723,171.036530 479.822021,188.532471 483.066986,211.121567 
	C483.888550,216.840775 482.468750,217.988235 476.815948,217.377609 
	C460.477966,215.612717 446.414612,209.524384 435.592407,196.627579 
	C426.980682,186.364990 423.164093,174.434113 422.012970,161.382416 
	C421.684631,157.659805 423.797699,156.636093 426.943146,156.981400 
	C433.733643,157.726898 440.480804,158.723480 447.164856,161.668793 
z"/>
<path fill="#000000" opacity="1.000000" stroke="none" 
	d="
M720.294922,894.622375 
	C726.660217,902.118774 727.223511,908.037476 722.408264,914.151794 
	C718.689575,918.873901 710.712891,920.575378 705.186707,917.825439 
	C697.968262,914.233398 695.090088,905.710205 698.776611,898.843018 
	C703.015747,890.946594 711.630371,889.133728 720.294922,894.622375 
z"/>
</svg>